<?xml version="1.0" standalone="no"?>
<!DOCTYPE svg PUBLIC "-//W3C//DTD SVG 20010904//EN"
 "http://www.w3.org/TR/2001/REC-SVG-20010904/DTD/svg10.dtd">
<svg version="1.0" xmlns="http://www.w3.org/2000/svg"
 width="1269.000000pt" height="290.000000pt" viewBox="0 0 1269.000000 290.000000"
 preserveAspectRatio="xMidYMid meet">

<g transform="translate(0.000000,290.000000) scale(0.100000,-0.100000)"
fill="#5a78fd" stroke="none">
<path d="M1195 2875 c-638 -113 -1104 -606 -1176 -1245 -47 -417 100 -829 405
-1136 195 -195 406 -314 675 -382 97 -24 124 -26 311 -26 220 -1 294 9 450 60
109 36 282 125 378 194 46 33 88 57 94 54 6 -4 103 -90 216 -191 112 -101 213
-188 222 -193 41 -22 43 -2 52 513 12 650 6 1092 -16 1212 -53 283 -188 538
-396 746 -193 194 -415 316 -690 380 -113 27 -409 35 -525 14z m392 -485 c129
-45 249 -139 325 -254 115 -177 124 -428 21 -616 -70 -129 -169 -218 -305
-276 l-73 -31 -1 -97 c0 -57 -5 -101 -12 -108 -6 -6 -79 -15 -168 -21 -199
-12 -187 -24 -182 173 4 121 8 153 25 192 42 92 128 166 249 214 160 65 225
215 153 355 -77 152 -286 184 -401 62 -37 -39 -67 -110 -68 -158 -1 -63 -9
-69 -107 -77 -166 -12 -250 -10 -257 8 -22 58 9 219 64 330 81 165 251 291
440 328 60 11 236 -3 297 -24z m-119 -1506 c163 -68 179 -302 27 -382 -144
-75 -315 27 -315 188 1 145 155 250 288 194z"/>
<path d="M12397 2406 c-108 -39 -150 -154 -92 -253 77 -130 265 -100 306 49
33 124 -95 246 -214 204z"/>
<path d="M10460 2170 l0 -200 -70 0 -70 0 0 -115 0 -115 70 0 70 0 0 -420 0
-420 135 0 135 0 0 420 0 420 80 0 80 0 0 115 0 115 -80 0 -80 0 0 200 0 200
-135 0 -135 0 0 -200z"/>
<path d="M3852 1989 c-59 -11 -138 -49 -194 -92 l-48 -37 0 55 0 55 -135 0
-135 0 0 -735 0 -735 135 0 135 0 2 251 3 251 40 -32 c75 -61 157 -92 254 -98
162 -9 263 30 382 148 55 54 85 94 108 144 80 166 78 388 -5 555 -43 86 -132
181 -210 223 -94 50 -223 69 -332 47z m151 -255 c57 -19 125 -84 159 -151 19
-41 23 -63 23 -148 0 -116 -19 -165 -87 -236 -57 -59 -117 -83 -203 -83 -118
0 -208 54 -263 159 -25 45 -27 60 -27 160 0 94 3 116 22 151 79 149 213 201
376 148z"/>
<path d="M5070 1989 c-178 -30 -355 -189 -413 -374 -33 -105 -31 -282 5 -381
83 -233 279 -364 542 -364 183 1 315 50 423 158 34 35 63 66 63 70 0 4 -51 30
-112 58 l-111 51 -56 -38 c-146 -100 -339 -86 -445 32 -37 41 -76 119 -76 151
0 4 196 8 435 8 l435 0 0 83 c0 367 -306 609 -690 546z m243 -235 c72 -24 177
-128 177 -174 0 -7 -94 -10 -290 -10 -159 0 -290 3 -290 8 0 13 41 76 69 105
26 29 85 64 131 78 44 13 155 10 203 -7z"/>
<path d="M6316 1985 c-52 -18 -84 -43 -123 -94 l-33 -43 0 61 0 61 -120 0
-120 0 0 -535 0 -535 134 0 134 0 4 343 c5 365 9 398 58 467 34 48 78 63 128
46 l40 -14 35 101 c48 136 47 129 7 143 -46 17 -96 16 -144 -1z"/>
<path d="M6980 1986 c-127 -28 -256 -126 -319 -245 -43 -82 -60 -145 -67 -256
-14 -217 76 -404 247 -515 87 -56 164 -74 296 -68 121 6 166 21 246 82 26 20
50 36 53 36 11 0 -6 -130 -20 -164 -36 -85 -136 -136 -270 -136 -100 0 -175
21 -220 61 l-34 30 -152 -3 -151 -3 32 -65 c62 -123 178 -210 326 -247 93 -22
306 -22 390 0 140 37 258 126 309 234 51 109 54 145 54 716 l0 527 -130 0
-130 0 0 -55 c0 -30 -3 -55 -6 -55 -3 0 -24 15 -47 34 -115 93 -257 125 -407
92z m284 -257 c151 -56 227 -239 166 -401 -55 -147 -207 -219 -365 -174 -75
23 -163 106 -188 180 -87 255 142 487 387 395z"/>
<path d="M9705 1986 c-70 -18 -112 -38 -170 -80 -27 -20 -53 -36 -57 -36 -5 0
-8 23 -8 50 l0 50 -130 0 -130 0 0 -535 0 -535 129 0 129 0 4 318 c4 291 6
321 26 370 44 113 113 166 213 166 74 -1 120 -29 151 -92 23 -46 23 -54 26
-404 l3 -358 135 0 135 0 -3 413 c-3 407 -3 413 -27 471 -62 154 -258 247
-426 202z"/>
<path d="M11460 1994 c-227 -41 -399 -197 -455 -411 -19 -73 -19 -233 0 -306
35 -136 144 -277 262 -340 151 -80 393 -89 553 -19 58 25 141 88 186 140 l35
41 -58 29 c-32 16 -82 40 -110 52 l-53 22 -52 -35 c-203 -137 -467 -53 -522
166 l-6 27 441 0 442 0 -6 88 c-4 48 -14 112 -22 142 -50 186 -189 329 -375
384 -55 17 -213 29 -260 20z m213 -240 c56 -19 131 -83 157 -135 11 -21 20
-41 20 -44 0 -3 -133 -5 -295 -5 -162 0 -295 4 -295 8 0 19 61 102 94 128 76
61 218 82 319 48z"/>
<path d="M7980 1723 c0 -322 13 -493 44 -577 70 -194 227 -285 470 -274 164 8
277 67 350 181 73 115 86 205 86 614 l0 303 -135 0 -135 0 0 -337 c0 -205 -4
-353 -11 -376 -13 -47 -63 -106 -106 -123 -18 -8 -58 -14 -90 -14 -85 0 -130
29 -168 105 l-30 60 -3 343 -4 342 -134 0 -134 0 0 -247z"/>
<path d="M12310 1435 l0 -535 135 0 135 0 0 535 0 535 -135 0 -135 0 0 -535z"/>
</g>
</svg>
